<svg width="221" height="37" viewBox="0 0 221 37" fill="none" xmlns="http://www.w3.org/2000/svg">
<path d="M25.025 30.376H11.925L9.825 36.576H0.874997L13.575 1.476H23.475L36.175 36.576H27.125L25.025 30.376ZM22.825 23.776L18.475 10.926L14.175 23.776H22.825ZM61.5402 15.476V22.576H39.5402V15.476H61.5402Z" fill="#F6F6F6"/>
<path d="M86.9441 36.576L79.6441 23.326H77.5941V36.576H69.0441V1.476H83.3941C86.1608 1.476 88.5108 1.95933 90.4441 2.92599C92.4108 3.89266 93.8775 5.22599 94.8441 6.92599C95.8108 8.59266 96.2941 10.4593 96.2941 12.526C96.2941 14.8593 95.6275 16.9427 94.2941 18.776C92.9941 20.6093 91.0608 21.9093 88.4941 22.676L96.5941 36.576H86.9441ZM77.5941 17.276H82.8941C84.4608 17.276 85.6275 16.8927 86.3941 16.126C87.1941 15.3593 87.5941 14.276 87.5941 12.876C87.5941 11.5427 87.1941 10.4927 86.3941 9.726C85.6275 8.95933 84.4608 8.576 82.8941 8.576H77.5941V17.276ZM118.261 36.926C114.961 36.926 111.928 36.1593 109.161 34.626C106.428 33.0927 104.245 30.9593 102.611 28.226C101.011 25.4593 100.211 22.3593 100.211 18.926C100.211 15.4927 101.011 12.4093 102.611 9.67599C104.245 6.94266 106.428 4.80933 109.161 3.276C111.928 1.74266 114.961 0.975996 118.261 0.975996C121.561 0.975996 124.578 1.74266 127.311 3.276C130.078 4.80933 132.245 6.94266 133.811 9.67599C135.411 12.4093 136.211 15.4927 136.211 18.926C136.211 22.3593 135.411 25.4593 133.811 28.226C132.211 30.9593 130.045 33.0927 127.311 34.626C124.578 36.1593 121.561 36.926 118.261 36.926ZM118.261 29.126C121.061 29.126 123.295 28.1927 124.961 26.326C126.661 24.4593 127.511 21.9927 127.511 18.926C127.511 15.826 126.661 13.3593 124.961 11.526C123.295 9.65933 121.061 8.72599 118.261 8.72599C115.428 8.72599 113.161 9.64266 111.461 11.476C109.795 13.3093 108.961 15.7927 108.961 18.926C108.961 22.026 109.795 24.5093 111.461 26.376C113.161 28.2093 115.428 29.126 118.261 29.126ZM157.568 36.926C154.268 36.926 151.235 36.1593 148.468 34.626C145.735 33.0927 143.551 30.9593 141.918 28.226C140.318 25.4593 139.518 22.3593 139.518 18.926C139.518 15.4927 140.318 12.4093 141.918 9.67599C143.551 6.94266 145.735 4.80933 148.468 3.276C151.235 1.74266 154.268 0.975996 157.568 0.975996C160.868 0.975996 163.885 1.74266 166.618 3.276C169.385 4.80933 171.551 6.94266 173.118 9.67599C174.718 12.4093 175.518 15.4927 175.518 18.926C175.518 22.3593 174.718 25.4593 173.118 28.226C171.518 30.9593 169.351 33.0927 166.618 34.626C163.885 36.1593 160.868 36.926 157.568 36.926ZM157.568 29.126C160.368 29.126 162.601 28.1927 164.268 26.326C165.968 24.4593 166.818 21.9927 166.818 18.926C166.818 15.826 165.968 13.3593 164.268 11.526C162.601 9.65933 160.368 8.72599 157.568 8.72599C154.735 8.72599 152.468 9.64266 150.768 11.476C149.101 13.3093 148.268 15.7927 148.268 18.926C148.268 22.026 149.101 24.5093 150.768 26.376C152.468 28.2093 154.735 29.126 157.568 29.126ZM220.025 1.476V36.576H211.475V15.526L203.625 36.576H196.725L188.825 15.476V36.576H180.275V1.476H190.375L200.225 25.776L209.975 1.476H220.025Z" fill="#E05BFF"/>
</svg>
